<?xml version="1.0" encoding="UTF-8" standalone="no"?>
<!DOCTYPE svg PUBLIC "-//W3C//DTD SVG 1.1//EN" "http://www.w3.org/Graphics/SVG/1.1/DTD/svg11.dtd">
<svg width="100%" height="100%" viewBox="0 0 1084 434" version="1.1" xmlns="http://www.w3.org/2000/svg" xmlns:xlink="http://www.w3.org/1999/xlink" xml:space="preserve" xmlns:serif="http://www.serif.com/" style="fill-rule:evenodd;clip-rule:evenodd;stroke-miterlimit:10;">
    <g transform="matrix(1,0,0,1,4.46098,-150.957)">
        <ellipse cx="540.643" cy="549.309" rx="527.5" ry="34.922" style="fill:rgb(242,242,242);"/>
    </g>
    <g transform="matrix(1,0,0,1,-58.593,-308.841)">
        <path d="M583.48,324.894C497.536,324.894 435.829,380.034 435.829,508.692C435.829,654.505 497.536,693.103 583.48,693.103C669.424,693.103 734.807,650.829 734.807,508.692C734.807,356.753 669.424,324.894 583.48,324.894ZM584.045,644.703C524.518,644.703 493.419,609.78 493.419,508.786C493.419,419.674 525.791,372.682 585.318,372.682C644.845,372.682 677.217,403.549 677.217,508.786C677.217,607.234 643.572,644.703 584.045,644.703Z" style="fill:rgb(47,46,65);fill-rule:nonzero;"/>
    </g>
    <g transform="matrix(1,0,0,1,-58.593,-308.841)">
        <path d="M384.365,591.401L348.831,591.401L348.831,486.762C348.831,475.266 339.371,465.806 327.875,465.806L319.549,465.806C308.053,465.806 298.593,475.266 298.593,486.762L298.593,591.401L198.363,591.401C191.8,591.401 186.4,586.001 186.4,579.438C186.4,577.49 186.875,575.571 187.785,573.849L293.868,373.069C295.462,370.052 296.295,366.691 296.295,363.279C296.295,355.186 291.606,347.786 284.287,344.33L278.025,341.373C267.985,336.632 255.83,340.651 250.596,350.443L121.214,592.475C119.011,596.597 117.858,601.198 117.858,605.872C117.858,621.46 130.686,634.287 146.274,634.287L298.593,634.287L298.593,700.455C298.593,714.234 309.932,725.574 323.712,725.574L323.712,725.574C337.492,725.574 348.831,714.234 348.831,700.455L348.831,634.287L384.365,634.287C396.129,634.287 405.808,624.608 405.808,612.844C405.808,601.081 396.129,591.401 384.365,591.401Z" style="fill:rgb(0,153,255);fill-rule:nonzero;"/>
    </g>
    <g transform="matrix(1,0,0,1,-58.593,-308.841)">
        <path d="M1042.36,591.401L1006.83,591.401L1006.83,486.762C1006.83,475.266 997.368,465.806 985.872,465.806L977.545,465.806C966.049,465.806 956.589,475.266 956.589,486.762L956.589,591.401L856.359,591.401C849.796,591.401 844.396,586.001 844.396,579.438C844.396,577.49 844.872,575.571 845.782,573.849L951.864,373.069C953.458,370.052 954.291,366.691 954.291,363.279C954.291,355.186 949.602,347.786 942.284,344.33L936.021,341.373C925.981,336.632 913.827,340.651 908.592,350.443L779.211,592.475C777.008,596.597 775.855,601.198 775.855,605.872C775.855,621.46 788.682,634.287 804.271,634.287L956.589,634.287L956.589,700.455C956.589,714.234 967.929,725.574 981.708,725.574C995.488,725.574 1006.83,714.234 1006.83,700.455L1006.83,634.287L1042.36,634.287C1054.13,634.287 1063.81,624.608 1063.81,612.844C1063.81,601.081 1054.13,591.401 1042.36,591.401Z" style="fill:rgb(0,153,255);fill-rule:nonzero;"/>
    </g>
    <g transform="matrix(1,0,0,1,-58.593,-308.841)">
        <path d="M394.168,579.148L358.634,579.148L358.634,474.509C358.634,463.013 349.174,453.553 337.678,453.553L329.351,453.553C317.855,453.553 308.395,463.013 308.395,474.509L308.395,579.148L208.165,579.148C201.603,579.148 196.202,573.748 196.202,567.185C196.202,565.237 196.678,563.318 197.588,561.596L303.67,360.816C305.264,357.799 306.097,354.438 306.097,351.026C306.097,342.932 301.408,335.533 294.09,332.077L287.827,329.12C277.787,324.378 265.633,328.398 260.398,338.19L131.017,580.222C128.814,584.343 127.661,588.945 127.661,593.618C127.661,609.207 140.488,622.034 156.077,622.034L308.395,622.034L308.395,688.201C308.395,701.981 319.735,713.32 333.514,713.32L333.515,713.32C347.294,713.32 358.634,701.981 358.634,688.201L358.634,622.034L394.168,622.034C405.931,622.034 415.611,612.354 415.611,600.591C415.611,600.591 415.611,600.591 415.611,600.591C415.611,588.828 405.931,579.148 394.168,579.148Z" style="fill:none;fill-rule:nonzero;stroke:rgb(63,61,86);stroke-width:1px;"/>
    </g>
    <g transform="matrix(1,0,0,1,-58.593,-308.841)">
        <path d="M1060.74,579.148L1025.21,579.148L1025.21,474.509C1025.21,463.013 1015.75,453.553 1004.25,453.553L995.925,453.553C984.429,453.553 974.969,463.013 974.969,474.509L974.969,579.148L874.739,579.148C868.176,579.148 862.776,573.748 862.776,567.185C862.776,565.237 863.252,563.318 864.162,561.596L970.244,360.816C971.838,357.799 972.671,354.438 972.671,351.026C972.671,342.932 967.982,335.533 960.664,332.077L954.401,329.12C944.361,324.378 932.206,328.398 926.972,338.19L797.59,580.222C795.387,584.343 794.235,588.945 794.235,593.618C794.235,609.207 807.062,622.034 822.65,622.034L974.969,622.034L974.969,688.201C974.969,701.981 986.308,713.32 1000.09,713.32C1013.87,713.32 1025.21,701.981 1025.21,688.201L1025.21,622.034L1060.74,622.034C1072.51,622.034 1082.18,612.354 1082.18,600.591C1082.18,588.828 1072.51,579.148 1060.74,579.148Z" style="fill:none;fill-rule:nonzero;stroke:rgb(63,61,86);stroke-width:1px;"/>
    </g>
    <g transform="matrix(1,0,0,1,-58.593,-308.841)">
        <path d="M603.085,313.866C517.141,313.866 455.434,369.006 455.434,497.664C455.434,643.477 517.141,682.075 603.085,682.075C689.029,682.075 754.412,639.801 754.412,497.664C754.412,345.725 689.029,313.866 603.085,313.866ZM603.65,633.675C544.123,633.675 513.024,598.752 513.024,497.758C513.024,408.647 545.396,361.654 604.923,361.654C664.45,361.654 696.822,392.522 696.822,497.758C696.822,596.206 663.177,633.675 603.65,633.675L603.65,633.675Z" style="fill:none;fill-rule:nonzero;stroke:rgb(63,61,86);stroke-width:1px;"/>
    </g>
    <g transform="matrix(1,0,0,1,-58.593,-308.841)">
        <path d="M1069.92,577.434C1072.2,578.263 1074.6,578.687 1077.03,578.687C1088.45,578.687 1097.84,569.291 1097.84,557.874C1097.84,546.457 1088.45,537.062 1077.03,537.062C1075.57,537.062 1074.12,537.215 1072.69,537.519L1073.21,548.231L1068.14,539.051C1063.17,541.387 1059.33,545.606 1057.46,550.773C1056.8,552.584 1056.39,554.479 1056.26,556.403C1055.61,565.65 1061.2,574.271 1069.92,577.434Z" style="fill:rgb(87,184,148);fill-rule:nonzero;"/>
    </g>
    <g transform="matrix(1,0,0,1,-58.593,-308.841)">
        <path d="M1095,701.678C1093.21,692.567 1100.96,684.491 1108.62,679.241C1116.27,673.991 1125.22,668.833 1127.83,659.924C1131.59,647.12 1120.4,635.394 1111.7,625.282C1105.24,617.778 1099.69,609.535 1095.17,600.725C1093.36,597.193 1091.7,593.5 1091.22,589.559C1090.54,583.883 1092.36,578.236 1094.2,572.822C1100.32,554.788 1106.86,536.904 1113.83,519.172" style="fill:none;fill-rule:nonzero;stroke:rgb(63,61,86);stroke-width:1px;"/>
    </g>
    <g transform="matrix(1,0,0,1,-58.593,-308.841)">
        <path d="M1070.78,574.676C1073.05,575.505 1075.46,575.929 1077.89,575.929C1089.3,575.929 1098.7,566.534 1098.7,555.116C1098.7,543.699 1089.3,534.304 1077.89,534.304C1076.43,534.304 1074.97,534.457 1073.55,534.761L1074.07,545.473L1069,536.293C1064.03,538.629 1060.18,542.848 1058.32,548.015C1057.65,549.826 1057.25,551.721 1057.12,553.645C1056.46,562.892 1062.06,571.513 1070.78,574.676Z" style="fill:none;fill-rule:nonzero;stroke:rgb(63,61,86);stroke-width:1px;"/>
    </g>
    <g transform="matrix(1,0,0,1,-58.593,-308.841)">
        <path d="M1092.45,515.473C1094.87,508.814 1100.52,503.83 1107.43,502.275L1109.14,512.459L1112.32,501.763C1123.62,501.931 1132.82,511.271 1132.82,522.571C1132.82,533.987 1123.43,543.381 1112.01,543.381C1100.6,543.381 1091.2,533.987 1091.2,522.571C1091.2,520.15 1091.63,517.748 1092.45,515.473L1092.45,515.473Z" style="fill:rgb(87,184,148);fill-rule:nonzero;"/>
    </g>
    <g transform="matrix(1,0,0,1,-58.593,-308.841)">
        <path d="M1093.59,511.795C1096.01,505.136 1101.66,500.153 1108.57,498.598L1110.29,508.782L1113.46,498.086C1124.76,498.253 1133.97,507.594 1133.97,518.894C1133.97,530.31 1124.57,539.704 1113.16,539.704C1101.74,539.704 1092.35,530.31 1092.35,518.894C1092.35,516.473 1092.77,514.071 1093.59,511.795L1093.59,511.795Z" style="fill:none;fill-rule:nonzero;stroke:rgb(63,61,86);stroke-width:1px;"/>
    </g>
    <g transform="matrix(1,0,0,1,-58.593,-308.841)">
        <path d="M1108.05,625.489C1110.32,626.314 1112.72,626.736 1115.14,626.736C1126.56,626.736 1135.95,617.342 1135.95,605.926C1135.95,598.882 1132.37,592.299 1126.46,588.466L1124.02,596.685L1122.29,586.382C1122.27,586.374 1122.26,586.367 1122.24,586.362C1119.96,585.533 1117.55,585.11 1115.13,585.11C1103.71,585.11 1094.32,594.504 1094.32,605.921C1094.32,614.662 1099.83,622.513 1108.05,625.489L1108.05,625.489Z" style="fill:rgb(87,184,148);fill-rule:nonzero;"/>
    </g>
    <g transform="matrix(1,0,0,1,-58.593,-308.841)">
        <path d="M1109.04,621.764C1111.31,622.589 1113.71,623.011 1116.13,623.011C1127.55,623.011 1136.94,613.617 1136.94,602.201C1136.94,595.157 1133.36,588.574 1127.45,584.742L1125.01,592.961L1123.28,582.657C1123.27,582.649 1123.25,582.642 1123.23,582.637C1120.95,581.809 1118.54,581.385 1116.12,581.385C1104.7,581.385 1095.31,590.78 1095.31,602.196C1095.31,610.937 1100.82,618.788 1109.04,621.764L1109.04,621.764Z" style="fill:none;fill-rule:nonzero;stroke:rgb(63,61,86);stroke-width:1px;"/>
    </g>
    <g transform="matrix(1,0,0,1,-58.593,-308.841)">
        <path d="M1086.38,660.051C1088.12,669.958 1096.81,677.252 1106.87,677.252C1118.28,677.252 1127.67,667.862 1127.67,656.451C1127.67,645.04 1118.28,635.65 1106.87,635.65C1100.42,635.65 1094.32,638.647 1090.39,643.754L1099.66,657.711L1086.99,650.303C1086.01,653.456 1085.8,656.8 1086.38,660.051Z" style="fill:rgb(87,184,148);fill-rule:nonzero;"/>
    </g>
    <g transform="matrix(1,0,0,1,-58.593,-308.841)">
        <path d="M1087.24,657.294C1088.98,667.2 1097.66,674.494 1107.72,674.494C1119.13,674.494 1128.52,665.104 1128.52,653.693C1128.52,642.282 1119.13,632.892 1107.72,632.892C1101.28,632.892 1095.18,635.889 1091.25,640.996L1100.52,654.953L1087.85,647.545C1086.87,650.698 1086.66,654.042 1087.24,657.294Z" style="fill:none;fill-rule:nonzero;stroke:rgb(63,61,86);stroke-width:1px;"/>
    </g>
    <g transform="matrix(1,0,0,1,-58.593,-308.841)">
        <path d="M72.061,628.133C73.559,628.678 75.14,628.956 76.733,628.956C84.235,628.956 90.408,622.783 90.408,615.282C90.408,607.78 84.235,601.608 76.733,601.608C75.775,601.608 74.82,601.708 73.882,601.908L74.225,608.946L70.895,602.915C67.628,604.45 65.102,607.222 63.875,610.617C63.44,611.806 63.175,613.052 63.089,614.316C62.658,620.391 66.337,626.055 72.061,628.133Z" style="fill:rgb(87,184,148);fill-rule:nonzero;"/>
    </g>
    <g transform="matrix(1,0,0,1,-58.593,-308.841)">
        <path d="M88.538,709.763C87.362,703.778 92.456,698.471 97.487,695.022C102.518,691.573 108.397,688.184 110.113,682.331C112.58,673.918 105.232,666.214 99.512,659.57C95.268,654.64 91.624,649.224 88.656,643.436C87.365,641.162 86.486,638.679 86.059,636.099C85.608,632.371 86.806,628.66 88.013,625.103C92.033,613.254 96.332,601.504 100.909,589.854" style="fill:none;fill-rule:nonzero;stroke:rgb(63,61,86);stroke-width:1px;"/>
    </g>
    <g transform="matrix(1,0,0,1,-58.593,-308.841)">
        <path d="M72.625,626.321C74.122,626.866 75.703,627.144 77.297,627.144C84.798,627.144 90.971,620.971 90.971,613.47C90.971,605.968 84.798,599.796 77.297,599.796C76.338,599.796 75.383,599.896 74.446,600.096L74.788,607.134L71.458,601.103C68.191,602.638 65.665,605.41 64.439,608.805C64.003,609.994 63.738,611.24 63.652,612.504C63.222,618.579 66.9,624.243 72.625,626.321Z" style="fill:none;fill-rule:nonzero;stroke:rgb(63,61,86);stroke-width:1px;"/>
    </g>
    <g transform="matrix(1,0,0,1,-58.593,-308.841)">
        <path d="M86.866,587.423C88.452,583.048 92.168,579.774 96.708,578.752L97.834,585.443L99.922,578.416C107.345,578.526 113.392,584.663 113.392,592.087C113.392,599.588 107.22,605.76 99.719,605.76C92.218,605.76 86.046,599.588 86.046,592.087C86.046,590.497 86.324,588.918 86.866,587.423Z" style="fill:rgb(87,184,148);fill-rule:nonzero;"/>
    </g>
    <g transform="matrix(1,0,0,1,-58.593,-308.841)">
        <path d="M87.617,585.007C89.203,580.632 92.919,577.358 97.459,576.336L98.585,583.027L100.673,576C108.096,576.11 114.142,582.247 114.142,589.671C114.142,597.172 107.97,603.344 100.47,603.344C92.969,603.344 86.797,597.172 86.797,589.671C86.797,588.081 87.075,586.502 87.617,585.007Z" style="fill:none;fill-rule:nonzero;stroke:rgb(63,61,86);stroke-width:1px;"/>
    </g>
    <g transform="matrix(1,0,0,1,-58.593,-308.841)">
        <path d="M97.112,659.706C98.606,660.248 100.184,660.526 101.774,660.526C109.274,660.526 115.446,654.354 115.446,646.853C115.446,642.225 113.096,637.9 109.213,635.382L107.609,640.782L106.472,634.012C106.461,634.007 106.449,634.002 106.437,633.999C104.939,633.454 103.358,633.175 101.764,633.175C94.263,633.175 88.091,639.348 88.091,646.849C88.091,652.593 91.71,657.752 97.112,659.706Z" style="fill:rgb(87,184,148);fill-rule:nonzero;"/>
    </g>
    <g transform="matrix(1,0,0,1,-58.593,-308.841)">
        <path d="M97.762,657.259C99.257,657.801 100.835,658.078 102.424,658.078C109.925,658.078 116.097,651.906 116.097,644.406C116.097,639.778 113.747,635.453 109.864,632.934L108.26,638.335L107.123,631.565C107.111,631.559 107.1,631.555 107.088,631.552C105.593,631.009 104.015,630.732 102.425,630.732C94.924,630.732 88.752,636.904 88.752,644.405C88.752,650.145 92.366,655.301 97.762,657.259Z" style="fill:none;fill-rule:nonzero;stroke:rgb(63,61,86);stroke-width:1px;"/>
    </g>
    <g transform="matrix(1,0,0,1,-58.593,-308.841)">
        <path d="M82.876,682.414C84.02,688.923 89.728,693.716 96.337,693.716C103.834,693.716 110.003,687.546 110.003,680.049C110.003,672.551 103.834,666.382 96.337,666.382C92.101,666.382 88.097,668.351 85.511,671.707L91.603,680.876L83.279,676.009C82.634,678.081 82.495,680.278 82.876,682.414Z" style="fill:rgb(87,184,148);fill-rule:nonzero;"/>
    </g>
    <g transform="matrix(1,0,0,1,-58.593,-308.841)">
        <path d="M83.439,680.602C84.583,687.111 90.291,691.904 96.9,691.904C104.397,691.904 110.567,685.734 110.567,678.237C110.567,670.739 104.397,664.57 96.9,664.57C92.664,664.57 88.66,666.539 86.074,669.895L92.166,679.064L83.842,674.197C83.197,676.269 83.058,678.466 83.439,680.602Z" style="fill:none;fill-rule:nonzero;stroke:rgb(63,61,86);stroke-width:1px;"/>
    </g>
    <g transform="matrix(1,0,0,1,4.46098,-150.957)">
        <ellipse cx="480.946" cy="319.116" rx="17" ry="22" style="fill:rgb(47,46,65);"/>
    </g>
    <g transform="matrix(1,0,0,1,4.46098,-150.957)">
        <ellipse cx="573.446" cy="319.616" rx="17" ry="22" style="fill:rgb(47,46,65);"/>
    </g>
    <g transform="matrix(1,0,0,1,-58.593,-308.841)">
        <path d="M623.5,542.5C623.5,552.44 609.62,560.5 592.5,560.5C575.38,560.5 561.5,552.44 561.5,542.5C561.5,533.89 571.91,526.69 585.82,524.93C588.035,524.638 590.266,524.494 592.5,524.5C596.243,524.488 599.976,524.89 603.63,525.7C615.25,528.29 623.5,534.84 623.5,542.5Z" style="fill:rgb(47,46,65);fill-rule:nonzero;"/>
    </g>
    <g transform="matrix(1,0,0,1,4.46098,-150.957)">
        <ellipse cx="484.946" cy="314.116" rx="17" ry="22" style="fill:none;stroke:rgb(63,61,86);stroke-width:1px;"/>
    </g>
    <g transform="matrix(1,0,0,1,4.46098,-150.957)">
        <ellipse cx="577.446" cy="314.616" rx="17" ry="22" style="fill:none;stroke:rgb(63,61,86);stroke-width:1px;"/>
    </g>
    <g transform="matrix(1,0,0,1,4.46098,-150.957)">
        <ellipse cx="533.446" cy="379.616" rx="31" ry="18" style="fill:none;stroke:rgb(63,61,86);stroke-width:1px;"/>
    </g>
    <g transform="matrix(1,0,0,1,-58.593,-308.841)">
        <path d="M604,527.2C604.008,528.457 603.536,529.671 602.68,530.592C601.863,531.484 600.709,531.995 599.5,532L589.5,532C586.952,531.911 584.924,529.749 585,527.2C584.995,526.225 585.28,525.271 585.82,524.459C588.033,524.147 590.265,523.994 592.5,524C596.247,523.988 599.983,524.417 603.63,525.28C603.877,525.89 604.003,526.542 604,527.2Z" style="fill:white;fill-rule:nonzero;"/>
    </g>
    <g transform="matrix(1,0,0,1,4.46098,-150.957)">
        <circle cx="484.946" cy="308.116" r="5" style="fill:white;"/>
    </g>
    <g transform="matrix(1,0,0,1,4.46098,-150.957)">
        <circle cx="577.946" cy="308.116" r="5" style="fill:white;"/>
    </g>
    <g transform="matrix(1,0,0,1,4.46098,-150.957)">
        <circle cx="582.946" cy="355.116" r="5" style="fill:rgb(0,153,255);fill-opacity:0.3;"/>
    </g>
    <g transform="matrix(1,0,0,1,4.46098,-150.957)">
        <circle cx="460.946" cy="355.116" r="5" style="fill:rgb(0,153,255);fill-opacity:0.3;"/>
    </g>
</svg>
