<?xml version="1.0" encoding="UTF-8" standalone="no"?>
<!DOCTYPE svg PUBLIC "-//W3C//DTD SVG 1.1//EN" "http://www.w3.org/Graphics/SVG/1.1/DTD/svg11.dtd">
<svg width="100%" height="100%" viewBox="0 0 149 475" version="1.1" xmlns="http://www.w3.org/2000/svg" xmlns:xlink="http://www.w3.org/1999/xlink" xml:space="preserve" xmlns:serif="http://www.serif.com/" style="fill-rule:evenodd;clip-rule:evenodd;stroke-linejoin:round;stroke-miterlimit:2;">
    <g transform="matrix(1,0,0,1,-38.897,-91.8527)">
        <path d="M153.95,481.518L165.052,487.573L157.987,510.786L146.886,511.795L140.83,498.675L153.95,481.518Z" style="fill:rgb(255,185,185);fill-rule:nonzero;"/>
        <path d="M119.636,527.943L119.636,539.044L102.479,538.035L102.718,528.892L119.636,527.943Z" style="fill:rgb(255,185,185);fill-rule:nonzero;"/>
        <path d="M157.987,348.297L151.932,423.991L132.756,535.007L102.479,530.97L112.571,443.166L108.534,362.427L157.987,348.297Z" style="fill:rgb(47,46,65);fill-rule:nonzero;"/>
        <g transform="matrix(1,0,0,1,-139.852,-166.432)">
            <path d="M217.099,458.211L289.765,459.221L297.839,514.729L248.386,537.942L236.275,582.348L297.839,647.949L273.617,678.227C273.617,678.227 239.302,631.801 214.071,605.561C188.84,579.321 200.951,499.59 200.951,499.59L217.099,458.211Z" style="fill:rgb(47,46,65);fill-rule:nonzero;"/>
        </g>
        <circle cx="120.645" cy="126.263" r="22.203" style="fill:rgb(255,185,185);"/>
        <g transform="matrix(1,0,0,1,-139.852,-166.432)">
            <path d="M268.571,307.834L268.571,330.037L253.432,354.259C253.432,354.259 230.219,337.102 235.266,333.065C240.312,329.028 241.321,297.742 241.321,297.742L268.571,307.834Z" style="fill:rgb(255,185,185);fill-rule:nonzero;"/>
        </g>
        <path d="M128.719,159.569L143.858,177.735L137.802,303.89L90.368,302.881L82.294,192.874L92.386,164.615L99.309,155.196L111.562,173.698L128.719,159.569Z" style="fill:white;fill-rule:nonzero;"/>
        <g transform="matrix(1,0,0,1,-139.852,-166.432)">
            <path d="M292.792,391.601L303.894,433.99L292.792,476.378L310.959,500.6L327.107,423.897C327.107,423.897 314.996,361.324 313.987,354.259C312.977,347.194 310.959,346.185 310.959,346.185L302.885,347.194L292.792,391.601Z" style="fill:rgb(47,46,65);fill-rule:nonzero;"/>
        </g>
        <path d="M72.202,241.317L65.137,254.438L63.118,276.641L67.155,301.872L53.026,325.085L38.897,261.502L54.035,179.753L60.091,179.753L72.202,241.317Z" style="fill:rgb(47,46,65);fill-rule:nonzero;"/>
        <g transform="matrix(1,0,0,1,-139.852,-166.432)">
            <path d="M297.839,646.94C297.839,646.94 311.968,650.977 317.014,651.986C322.061,652.995 313.987,672.171 313.987,672.171C313.987,672.171 308.94,698.412 307.931,703.458C306.922,708.504 299.857,725.661 290.774,727.68C281.691,729.698 287.746,692.356 287.746,692.356C287.746,692.356 283.709,680.245 283.709,676.208C283.709,672.171 289.765,674.19 289.765,674.19C305.913,672.171 297.839,646.94 297.839,646.94Z" style="fill:rgb(47,46,65);fill-rule:nonzero;"/>
        </g>
        <g transform="matrix(1,0,0,1,-139.852,-166.432)">
            <path d="M264.534,724.652C263.524,730.707 265.543,730.707 249.395,732.726C233.247,734.744 237.284,721.624 237.284,721.624C237.959,715.439 239.313,709.347 241.321,703.458C244.349,695.384 260.497,705.476 260.497,705.476C260.497,705.476 265.543,718.596 264.534,724.652Z" style="fill:rgb(47,46,65);fill-rule:nonzero;"/>
        </g>
        <g transform="matrix(1,0,0,1,-139.852,-166.432)">
            <path d="M241.295,298.446L240.769,307.422C240.769,307.422 234.256,292.695 233.247,277.557C232.238,262.418 249.395,259.39 259.487,258.381C269.58,257.372 286.737,264.436 286.737,272.51C286.737,280.584 268.571,278.566 261.506,276.547C254.441,274.529 251.413,291.686 251.413,291.686L247.376,292.695L241.295,298.446Z" style="fill:rgb(47,46,65);fill-rule:nonzero;"/>
        </g>
        <path d="M134.676,166.716L128.719,159.569L111.562,173.698L128.719,185.809L134.676,166.716Z" style="fill:white;fill-rule:nonzero;"/>
        <path d="M92.386,164.615L99.451,155.532L111.562,173.698L96.423,184.8L92.386,164.615Z" style="fill:white;fill-rule:nonzero;"/>
        <g transform="matrix(1,0,0,1,-139.852,-166.432)">
            <path d="M295.82,405.731L291.783,444.082L299.857,467.295L304.903,489.498C304.903,489.498 304.903,510.692 284.718,511.701C264.534,512.711 247.376,448.119 247.376,448.119C247.376,448.119 244.349,462.248 242.33,470.322C240.312,478.396 205.997,510.692 205.997,510.692C205.997,510.692 197.923,509.683 190.859,493.535C183.794,477.387 204.988,462.248 204.988,462.248L211.044,441.054L209.025,414.814L194.896,346.185L236.779,324.486L232.238,382.518L247.376,427.934L270.084,327.514L277.654,333.065L309.95,346.185L295.82,405.731Z" style="fill:rgb(47,46,65);fill-rule:nonzero;"/>
        </g>
    </g>
</svg>
