<?xml version="1.0" encoding="UTF-8" standalone="no"?>
<!DOCTYPE svg PUBLIC "-//W3C//DTD SVG 1.1//EN" "http://www.w3.org/Graphics/SVG/1.1/DTD/svg11.dtd">
<svg width="100%" height="100%" viewBox="0 0 300 375" version="1.1" xmlns="http://www.w3.org/2000/svg" xmlns:xlink="http://www.w3.org/1999/xlink" xml:space="preserve" xmlns:serif="http://www.serif.com/" style="fill-rule:evenodd;clip-rule:evenodd;stroke-linejoin:round;stroke-miterlimit:2;">
    <g id="ground-shadow" transform="matrix(0.155689,0,0,0.155689,0.934074,201.498)">
        <path id="Fill-1" d="M943.061,1105.78L7.87,565.401C-3.607,558.77 -2.157,547.081 11.094,539.424L932.762,6.863C946.008,-0.79 966.239,-1.63 977.716,4.997L1912.91,545.377C1924.38,552.007 1922.93,563.697 1909.68,571.353L988.016,1103.91C974.765,1111.57 954.534,1112.41 943.061,1105.78" style="fill:rgb(222,218,217);"/>
    </g>
    <g id="ground" transform="matrix(0.155689,0,0,0.155689,-5.85587e-05,147.63)">
        <path id="Fill-8" d="M9.118,544.016C2.134,552.161 1.551,559.724 1.551,559.724L0.972,624.881L152.134,598.309L46.571,539.358C46.571,539.358 16.657,535.23 9.118,544.016" style="fill:rgb(218,214,208);"/>
        <path id="Fill-10" d="M948.543,1174.52L12.856,634.65C1.373,628.03 2.824,616.352 16.082,608.698L938.238,76.64C951.491,68.99 971.733,68.152 983.217,74.776L1918.9,614.649C1930.39,621.269 1928.93,632.948 1915.67,640.597L993.522,1172.66C980.264,1180.31 960.022,1181.15 948.543,1174.52" style="fill:rgb(210,208,204);"/>
        <path id="Fill-11" d="M1852.41,634.964L1926.92,628.761L1926.92,556.351L1824.46,557.901L1852.41,634.964" style="fill:rgb(206,201,191);"/>
        <path id="Fill-12" d="M960.94,70.396C952.885,70.796 944.656,72.892 938.118,76.656L11.033,610.264C-2.295,617.938 -3.755,629.65 7.787,636.295L948.477,1177.73C951.959,1179.74 956.288,1180.98 960.94,1181.64L960.94,70.396" style="fill:rgb(222,218,217);"/>
        <path id="Fill-13" d="M948.543,1104.94L12.856,565.075C1.373,558.451 2.824,546.772 16.082,539.123L938.238,7.06C951.491,-0.589 971.733,-1.428 983.217,5.197L1918.9,545.07C1930.39,551.69 1928.93,563.368 1915.67,571.018L993.522,1103.08C980.264,1110.73 960.022,1111.57 948.543,1104.94" style="fill:rgb(248,248,248);"/>
    </g>
    <g id="skills" transform="matrix(1,0,0,1,-1.93836,5.33569)">
        <g id="vue" transform="matrix(0.393144,0.226982,-2.18239e-17,0.453964,79.262,139.045)">
            <g transform="matrix(1,0,0,1,86.2318,123.728)">
                <path d="M0,8.934L49.854,9.092L64.021,33.562L78.453,9.092L128,8.935L64.166,119.075L0,8.934ZM126.98,9.571L102.62,9.592L64.144,75.644L25.691,9.592L0.942,9.572L64.153,117.462L126.98,9.571ZM101.831,9.563L79.086,9.731L64.033,34.378L49.216,9.731L26.422,9.563L64.153,74.039L101.831,9.563ZM25.997,9.393L48.999,9.402M25.997,9.393L48.999,9.402" style="fill:none;fill-rule:nonzero;"/>
            </g>
            <g transform="matrix(1,0,0,1,86.2318,123.728)">
                <path d="M25.997,9.393L48.999,9.402L64.035,34.36L79.018,9.404L102,9.398L64.15,75.053L25.997,9.393Z" style="fill:rgb(53,73,94);fill-rule:nonzero;"/>
            </g>
            <g transform="matrix(1,0,0,1,86.2318,123.728)">
                <path d="M0.911,9.569L25.977,9.398L64.128,75.056L101.98,9.401L127.09,9.428L64.124,117.488L0.911,9.569Z" style="fill:rgb(65,184,131);fill-rule:nonzero;"/>
            </g>
        </g>
        <g id="css" transform="matrix(0.345589,0.199526,-1.9184e-17,0.399052,178.143,109.614)">
            <g transform="matrix(1,0,0,1,79.7423,132.075)">
                <path d="M18.814,114.123L8.76,1.352L119.24,1.352L109.176,114.106L63.933,126.649L18.814,114.123Z" style="fill:rgb(21,114,182);fill-rule:nonzero;"/>
            </g>
            <g transform="matrix(1,0,0,1,79.7423,132.075)">
                <path d="M64.001,117.062L100.56,106.926L109.161,10.572L64.001,10.572L64.001,117.062Z" style="fill:rgb(51,169,220);fill-rule:nonzero;"/>
            </g>
            <g transform="matrix(1,0,0,1,79.7423,132.075)">
                <path d="M64.001,51.429L82.303,51.429L83.567,37.266L64.001,37.266L64.001,23.435L98.683,23.435L98.351,27.146L94.951,65.26L64.001,65.26L64.001,51.429Z" style="fill:white;fill-rule:nonzero;"/>
            </g>
            <g transform="matrix(1,0,0,1,79.7423,132.075)">
                <path d="M64.083,87.349L64.022,87.367L48.619,83.208L47.634,72.177L33.752,72.177L35.689,93.894L64.02,101.757L64.083,101.739L64.083,87.349Z" style="fill:rgb(235,235,235);fill-rule:nonzero;"/>
            </g>
            <g transform="matrix(1,0,0,1,79.7423,132.075)">
                <path d="M81.127,64.675L79.461,83.197L64.035,87.361L64.035,101.751L92.389,93.893L92.597,91.556L95.003,64.675L81.127,64.675Z" style="fill:white;fill-rule:nonzero;"/>
            </g>
            <g transform="matrix(1,0,0,1,79.7423,132.075)">
                <path d="M64.048,23.435L64.048,37.266L30.64,37.266L30.363,34.158L29.733,27.146L29.402,23.435L64.048,23.435ZM64.001,51.431L64.001,65.262L48.792,65.262L48.515,62.154L47.884,55.142L47.554,51.431L64.001,51.431Z" style="fill:rgb(235,235,235);fill-rule:nonzero;"/>
            </g>
        </g>
        <g id="typescript" transform="matrix(0.433013,0.25,-2.4037e-17,0.5,141.115,-81.5714)">
            <rect x="108.29" y="174.272" width="86.049" height="58.866" style="fill:white;"/>
            <g id="original-2" transform="matrix(0.8,0,0,0.8,93.1393,132.156)">
                <path d="M1.5,1.41L1.5,126.41L126.5,126.41L126.5,1.41L1.5,1.41ZM102.23,58.91C105.224,59.605 107.945,61.171 110.05,63.41C111.209,64.616 112.216,65.96 113.05,67.41C113.05,67.57 107.65,71.22 104.36,73.26C104.24,73.34 103.76,72.82 103.23,72.03C102.011,69.926 99.79,68.591 97.36,68.5C93.57,68.24 91.13,70.23 91.15,73.5C91.119,74.314 91.305,75.122 91.69,75.84C92.52,77.57 94.07,78.6 98.93,80.7C107.88,84.55 111.71,87.09 114.09,90.7C116.75,94.7 117.34,101.16 115.54,105.94C113.54,111.14 108.64,114.67 101.71,115.84C98.545,116.203 95.347,116.169 92.19,115.74C87.352,114.943 82.894,112.619 79.47,109.11C78.32,107.84 76.08,104.53 76.22,104.29C76.585,104.019 76.969,103.775 77.37,103.56L82,101L85.59,98.92L86.34,100.03C87.606,101.841 89.217,103.383 91.08,104.57C95.08,106.67 100.54,106.38 103.24,103.95C105.103,102.12 105.395,99.192 103.93,97.03C102.93,95.64 100.93,94.47 95.34,92.03C88.89,89.25 86.11,87.53 83.57,84.79C81.984,82.982 80.814,80.849 80.14,78.54C79.638,75.902 79.563,73.201 79.92,70.54C81.25,64.31 85.92,59.96 92.74,58.67C95.898,58.279 99.098,58.367 102.23,58.93L102.23,58.91ZM72.89,64.15L72.89,69.27L56.66,69.27L56.66,115.5L45.15,115.5L45.15,69.26L28.88,69.26L28.88,64.26C28.829,62.536 28.869,60.81 29,59.09C29.08,59 39,59 51,59L72.83,59L72.89,64.15Z" style="fill:rgb(1,123,202);fill-rule:nonzero;"/>
            </g>
        </g>
        <g id="javascript" transform="matrix(0.433013,0.25,-2.4037e-17,0.5,13.2478,-85.6226)">
            <g transform="matrix(0.798818,0,0,0.798818,93.2146,132.16)">
                <rect x="1.408" y="1.408" width="125.184" height="125.185" style="fill:rgb(240,219,79);fill-rule:nonzero;"/>
            </g>
            <g transform="matrix(0.798818,0,0,0.798818,93.2146,132.16)">
                <path d="M116.347,96.736C115.43,91.025 111.706,86.228 100.675,81.755C96.843,79.994 92.571,78.733 91.298,75.829C90.846,74.139 90.786,73.187 91.072,72.164C91.893,68.844 95.856,67.809 98.997,68.761C101.02,69.439 102.935,70.998 104.09,73.485C109.492,69.987 109.481,70.01 113.253,67.606C111.872,65.465 111.135,64.477 110.231,63.561C106.982,59.932 102.555,58.063 95.475,58.206L91.787,58.683C88.253,59.576 84.885,61.431 82.91,63.918C76.984,70.642 78.674,82.41 85.885,87.253C92.989,92.585 103.425,93.798 104.758,98.784C106.055,104.888 100.272,106.864 94.524,106.162C90.288,105.281 87.932,103.128 85.385,99.213C80.697,101.926 80.697,101.926 75.877,104.698C77.02,107.197 78.221,108.328 80.137,110.493C89.205,119.691 111.897,119.239 115.967,105.317C116.132,104.839 117.228,101.651 116.347,96.736ZM69.462,58.943L57.753,58.943L57.705,89.215C57.705,95.653 58.038,101.555 56.991,103.364C55.278,106.922 50.839,106.481 48.816,105.791C46.757,104.779 45.71,103.34 44.497,101.306C44.164,100.722 43.914,100.27 43.83,100.235L34.31,106.065C35.893,109.314 38.225,112.134 41.212,113.966C45.674,116.644 51.671,117.465 57.943,116.025C62.025,114.836 65.547,112.373 67.391,108.624C70.057,103.709 69.485,97.76 69.461,91.18C69.521,80.445 69.462,69.712 69.462,58.943Z" style="fill:rgb(50,51,48);fill-rule:nonzero;"/>
            </g>
        </g>
        <g id="sass" transform="matrix(0.461133,0.266235,-2.5598e-17,0.53247,122.169,50.7962)">
            <path d="M1.219,56.156C1.219,56.859 1.426,57.323 1.542,57.774C2.298,60.707 3.923,63.224 5.851,65.52C8.597,68.792 11.96,71.426 15.405,73.903C18.393,76.051 21.442,78.151 24.442,80.283C24.957,80.649 25.444,81.07 26.003,81.519C25.522,81.779 25.122,82.008 24.706,82.219C20.747,84.227 16.938,86.478 13.427,89.205C11.311,90.849 9.265,92.596 7.82,94.879C5.495,98.551 4.672,102.463 6.405,106.64C6.911,107.86 7.683,108.914 8.772,109.693C9.125,109.945 9.521,110.195 9.934,110.293C10.992,110.542 12.07,110.705 13.141,110.902L16.174,110.9C19.528,110.601 22.581,109.452 25.34,107.548C29.652,104.572 32.557,100.582 33.806,95.461C34.714,91.739 34.751,88.013 33.681,84.308C33.582,83.964 33.457,83.627 33.327,83.294C33.197,82.961 33.044,82.637 32.864,82.222L39.74,78.268L39.843,78.356C39.718,78.765 39.585,79.173 39.472,79.586C38.655,82.57 38.112,85.606 38.307,88.703C38.515,92.003 39.436,95.092 41.368,97.849C42.93,100.079 46.652,100.162 48.312,97.924C48.901,97.129 49.472,96.298 49.901,95.411C51.022,93.096 52.06,90.74 53.131,88.4L53.318,87.972C53.241,89.08 53.151,90.053 53.11,91.027C53.046,92.548 53.135,94.06 53.655,95.507C54.1,96.745 54.857,97.67 56.275,97.833C57.245,97.944 58.018,97.5 58.731,96.937C59.845,96.058 60.75,94.972 61.422,93.738C63.323,90.247 65.275,86.777 66.998,83.198C68.862,79.327 70.492,75.343 72.223,71.406L72.509,70.708C72.918,72.315 73.203,73.889 73.728,75.379C74.338,77.108 75.093,78.796 75.915,80.437C76.304,81.212 76.259,81.715 75.72,82.365C73.464,85.085 71.247,87.838 69.028,90.588C68.537,91.195 68.048,91.813 67.639,92.476C67.392,92.879 67.228,93.37 67.159,93.84C67.026,94.738 67.581,95.604 68.542,95.811C69.42,96 70.355,96.07 71.25,96.004C74.347,95.776 77.159,94.689 79.645,92.847C82.866,90.461 83.9,87.205 83.12,83.346C82.909,82.299 82.536,81.281 82.173,80.272C82.01,79.817 81.999,79.498 82.296,79.074C84.871,75.397 87.071,71.496 89.117,67.505C89.198,67.348 89.281,67.191 89.423,67.023C90.086,70.473 91.084,73.798 92.872,76.815C91.96,77.694 91.057,78.491 90.24,79.369C88.441,81.303 86.881,83.403 86.067,85.964C85.717,87.068 85.448,88.19 85.604,89.369C85.846,91.2 87.346,92.39 89.147,91.973C93.001,91.081 96.328,89.265 98.759,86.048C100.395,83.882 100.544,81.466 99.859,78.935C99.671,78.247 99.448,77.57 99.208,76.781C100.159,76.486 101.086,76.132 102.045,75.913C107.024,74.777 111.949,74.975 116.747,76.773C119.548,77.823 121.811,79.58 123.153,82.344C124.792,85.723 123.886,88.929 120.701,91.065C120.404,91.264 120.064,91.421 119.818,91.67C119.667,91.823 119.576,92.129 119.613,92.34C119.634,92.463 119.959,92.617 120.146,92.615C121.193,92.607 122.042,92.058 122.857,91.494C124.899,90.081 126.389,88.18 126.71,85.677L126.773,85.489L126.696,83.859C126.665,83.765 126.719,83.672 126.712,83.601C126.278,79.956 124.331,77.129 121.499,74.913C118.219,72.348 114.346,71.292 110.25,71.125C106.912,70.989 103.631,71.485 100.485,72.628C99.588,72.953 98.699,73.338 97.797,73.701C97.676,73.482 97.546,73.272 97.439,73.055C96.513,71.159 95.391,69.347 95.143,67.173C94.967,65.629 94.751,64.087 95.118,62.56C95.471,61.091 95.931,59.647 96.364,58.198C96.587,57.452 96.43,57.034 95.718,56.698C95.47,56.581 95.2,56.479 94.932,56.44C93.182,56.186 91.456,56.331 89.761,56.824C89.161,56.999 88.725,57.335 88.592,57.999C88.516,58.38 88.361,58.745 88.253,59.121C87.81,60.684 87.496,62.277 86.78,63.766C84.986,67.501 82.938,71.095 80.842,74.663C80.615,75.048 80.376,75.426 80.09,75.893C79.354,74.353 78.569,72.971 78.331,71.351C78.062,69.519 77.85,67.69 78.306,65.872C78.645,64.516 79.088,63.185 79.496,61.847C79.689,61.211 79.6,60.877 79.024,60.542C78.733,60.373 78.404,60.223 78.076,60.174C76.261,59.905 74.473,60.046 72.722,60.612C72.179,60.788 71.894,61.139 71.728,61.699C71.24,63.351 70.824,65.043 70.139,66.614C67.365,72.974 64.511,79.301 61.66,85.627C61.065,86.948 60.368,88.223 59.697,89.509C59.527,89.835 59.279,90.122 59.067,90.428C58.897,90.227 58.831,90.089 58.832,89.951C58.837,89.138 58.74,88.301 58.895,87.515C59.364,85.137 59.904,82.772 60.473,80.416C60.943,78.47 61.49,76.542 62.011,74.609C62.186,73.962 62.189,73.357 61.724,72.813C60.943,71.902 59.311,71.702 58.343,72.404L57.915,72.646L57.998,71.956C58.202,70.477 58.243,69.003 57.837,67.546C57.331,65.73 56.035,64.685 54.151,64.743C53.273,64.77 52.351,64.92 51.538,65.24C48.119,66.58 45.49,68.953 43.252,71.808C43.049,72.067 42.781,72.303 42.495,72.462C39.602,74.066 36.7,75.65 33.799,77.24L30.57,79.009C29.704,78.183 28.917,77.326 28.024,76.599C25.297,74.375 22.526,72.206 19.78,70.007C17.346,68.058 14.988,66.028 13.184,63.447C11.842,61.527 10.977,59.426 10.894,57.052C10.789,54.027 11.647,51.263 13.187,48.69C15.157,45.398 17.844,42.756 20.798,40.363C23.923,37.833 27.303,35.685 30.806,33.724C35.707,30.981 40.748,28.553 46.153,26.95C51.695,25.306 57.318,24.365 63.118,25.021C65.398,25.279 67.612,25.801 69.645,26.916C71.202,27.769 72.479,28.886 73.073,30.632C73.659,32.35 73.641,34.091 73.235,35.836C72.41,39.37 70.475,42.283 68.04,44.886C64.046,49.153 59.174,52.058 53.689,53.977C50.524,55.084 47.268,55.779 43.924,56.06C41.195,56.289 38.523,56.047 35.939,55.098C34.228,54.469 32.738,53.507 31.54,52.111C31.326,51.861 31.052,51.59 30.653,51.824C30.262,52.054 30.193,52.426 30.324,52.803C30.543,53.429 30.745,54.081 31.086,54.641C31.943,56.046 33.193,57.065 34.569,57.939C37.212,59.62 40.166,60.185 43.229,60.316C47.877,60.517 52.412,59.823 56.883,58.576C63.266,56.796 68.816,53.652 73.267,48.692C76.973,44.562 79.62,39.901 80.187,34.273C80.464,31.526 80.169,28.835 78.883,26.329C77.488,23.614 75.27,21.595 72.618,20.204C68.756,18.179 64.588,17 60.286,17L55.976,17C50.766,17 45.729,18.493 40.833,20.274C37.127,21.623 33.493,23.215 29.965,24.977C22.282,28.816 15.127,33.445 9.25,39.81C6.322,42.981 3.843,46.48 2.417,50.6C2,51.806 1.604,53.099 1.306,54.346M29.145,90.359C28.812,94.818 26.791,98.433 23.488,101.361C21.63,103.007 19.499,104.179 17.017,104.591C16.117,104.74 15.196,104.776 14.323,104.403C13.078,103.871 12.799,102.766 12.775,101.589C12.738,99.713 13.395,98.017 14.296,96.403C15.472,94.299 17.196,92.695 19.037,91.197C21.937,88.836 25.083,86.838 28.305,84.952L28.548,84.852C29.046,86.692 29.283,88.509 29.145,90.359ZM54.303,70.98C54.068,72.404 53.774,73.829 53.358,75.209C51.92,79.986 50.073,84.615 48.076,89.182C47.707,90.027 47.17,90.798 46.703,91.599C46.631,91.723 46.524,91.83 46.42,91.933C45.842,92.504 45.294,92.474 45.002,91.727C44.662,90.859 44.453,89.93 44.273,89.011C44.152,88.394 44.181,87.746 44.143,87.114C44.182,82.62 45.553,78.536 47.879,74.734C48.838,73.166 49.882,71.672 51.477,70.68C51.967,70.375 52.517,70.13 53.072,69.974C53.922,69.735 54.444,70.128 54.303,70.98ZM71.467,92.848L77.636,85.645C77.893,88.32 73.346,93.66 71.467,92.848ZM91.17,88.001C90.734,88.251 90.259,88.431 89.812,88.662C89.403,88.874 89.268,88.66 89.256,88.308C89.248,88.069 89.283,87.819 89.349,87.587C90.182,84.649 91.715,82.141 93.996,80.101L94.156,80.019C95.241,83.054 93.987,86.387 91.17,88.001Z" style="fill:rgb(203,102,153);"/>
        </g>
        <g id="html" transform="matrix(0.433013,0.25,-2.4037e-17,0.5,-5.46504,76.8458)">
            <g transform="matrix(0.802066,0,0,0.802066,98.9183,131.952)">
                <path d="M19.037,113.876L9.032,1.661L118.968,1.661L108.952,113.859L63.933,126.339L19.037,113.876Z" style="fill:rgb(228,77,38);fill-rule:nonzero;"/>
            </g>
            <g transform="matrix(0.802066,0,0,0.802066,98.9183,131.952)">
                <path d="M64,116.8L100.378,106.714L108.937,10.836L64,10.836L64,116.8Z" style="fill:rgb(241,101,41);fill-rule:nonzero;"/>
            </g>
            <g transform="matrix(0.802066,0,0,0.802066,98.9183,131.952)">
                <path d="M64,52.455L45.788,52.455L44.53,38.361L64,38.361L64,24.599L29.489,24.599L29.819,28.291L33.201,66.218L64,66.218L64,52.455ZM64,88.198L63.939,88.215L48.612,84.075L47.633,73.1L33.816,73.1L35.744,94.709L63.937,102.535L64,102.518L64,88.198Z" style="fill:rgb(235,235,235);fill-rule:nonzero;"/>
            </g>
            <g transform="matrix(0.802066,0,0,0.802066,98.9183,131.952)">
                <path d="M63.952,52.455L63.952,66.218L80.899,66.218L79.302,84.067L63.952,88.21L63.952,102.529L92.167,94.709L92.374,92.384L95.608,56.151L95.943,52.455L63.952,52.455ZM63.952,24.599L63.952,38.361L97.196,38.361L97.472,35.269L98.1,28.291L98.429,24.599L63.952,24.599Z" style="fill:white;fill-rule:nonzero;"/>
            </g>
        </g>
        <g id="git" transform="matrix(0.334031,0.192853,-1.85425e-17,0.385706,20.0675,44.721)">
            <g transform="matrix(0.707107,0.707107,-0.785591,0.785591,112.617,-48.4521)">
                <path d="M156.091,128.243C156.091,117.789 150.647,109.302 143.942,109.302L88.995,109.302C82.29,109.302 76.846,117.789 76.846,128.243L76.846,166.123C76.846,176.577 82.29,185.063 88.995,185.063L143.942,185.063C150.647,185.063 156.091,176.577 156.091,166.123L156.091,128.243Z" style="fill:white;"/>
            </g>
            <g transform="matrix(1,0,0,1,17.1515,94.2683)">
                <path d="M124.737,58.378L69.621,3.264C66.449,0.09 61.301,0.09 58.124,3.264L46.68,14.71L61.198,29.228C64.573,28.089 68.441,28.853 71.13,31.542C73.833,34.248 74.591,38.149 73.424,41.535L87.416,55.528C90.801,54.361 94.708,55.115 97.41,57.823C101.19,61.6 101.19,67.723 97.41,71.502C93.63,75.282 87.509,75.282 83.727,71.502C80.885,68.658 80.182,64.483 81.622,60.981L68.574,47.933L68.572,82.274C69.494,82.729 70.363,83.337 71.131,84.102C74.909,87.879 74.909,94 71.131,97.785C67.352,101.562 61.227,101.562 57.452,97.785C53.674,94.001 53.674,87.88 57.452,84.102C58.386,83.169 59.466,82.464 60.619,81.992L60.619,47.333C59.466,46.861 58.388,46.161 57.452,45.222C54.59,42.362 53.901,38.162 55.369,34.646L41.056,20.333L3.264,58.123C0.089,61.3 0.089,66.448 3.264,69.623L58.381,124.737C61.555,127.911 66.701,127.911 69.88,124.737L124.738,69.879C127.912,66.703 127.912,61.552 124.737,58.378Z" style="fill:rgb(243,79,41);fill-rule:nonzero;"/>
            </g>
        </g>
        <g id="github" transform="matrix(0.358389,0.206916,-1.98946e-17,0.413832,217.702,6.60282)">
            <g transform="matrix(1.29045,0,0,1.29398,26.7898,-66.2921)">
                <circle cx="42.392" cy="270.579" r="46.686" style="fill:white;"/>
            </g>
            <g transform="matrix(1,0,0,1,17.4944,218.318)">
                <path d="M64,5.103C30.653,5.103 3.612,32.138 3.612,65.491C3.612,92.173 20.915,114.808 44.909,122.794C47.926,123.354 49.034,121.484 49.034,119.889C49.034,118.449 48.978,113.692 48.952,108.646C32.152,112.299 28.607,101.521 28.607,101.521C25.86,94.541 21.902,92.685 21.902,92.685C16.422,88.937 22.315,89.015 22.315,89.015C28.378,89.44 31.572,95.238 31.572,95.238C36.958,104.468 45.699,101.8 49.145,100.258C49.687,96.355 51.252,93.69 52.979,92.182C39.566,90.657 25.465,85.478 25.465,62.339C25.465,55.746 27.825,50.359 31.688,46.129C31.06,44.609 28.993,38.467 32.272,30.149C32.272,30.149 37.342,28.526 48.882,36.339C53.7,35 58.867,34.327 64,34.304C69.13,34.327 74.3,34.998 79.127,36.337C90.653,28.524 95.717,30.147 95.717,30.147C99.004,38.464 96.937,44.607 96.31,46.127C100.182,50.357 102.525,55.744 102.525,62.337C102.525,85.531 88.398,90.637 74.951,92.133C77.118,94.007 79.048,97.683 79.048,103.316C79.048,111.396 78.978,117.899 78.978,119.888C78.978,121.495 80.066,123.378 83.126,122.785C107.106,114.791 124.389,92.163 124.389,65.491C124.388,32.14 97.35,5.104 64,5.104L64,5.103Z"/>
            </g>
            <g transform="matrix(1,0,0,1,17.4944,218.318)">
                <path d="M26.484,91.806C26.351,92.106 25.879,92.196 25.449,91.991C25.009,91.795 24.764,91.386 24.906,91.085C25.036,90.775 25.509,90.69 25.946,90.897C26.386,91.094 26.636,91.507 26.483,91.807L26.484,91.806ZM28.93,94.535C28.643,94.802 28.08,94.678 27.698,94.255C27.302,93.835 27.228,93.272 27.521,93.001C27.819,92.735 28.365,92.861 28.761,93.281C29.155,93.707 29.233,94.265 28.931,94.536L28.93,94.535ZM31.312,98.012C30.942,98.27 30.336,98.029 29.962,97.492C29.592,96.954 29.592,96.309 29.972,96.052C30.345,95.794 30.942,96.027 31.322,96.559C31.69,97.104 31.69,97.749 31.312,98.011L31.312,98.012ZM34.573,101.373C34.243,101.738 33.537,101.64 33.021,101.143C32.494,100.656 32.347,99.963 32.678,99.599C33.014,99.233 33.723,99.335 34.242,99.829C34.769,100.315 34.928,101.009 34.575,101.372L34.573,101.373ZM39.073,103.324C38.926,103.797 38.248,104.012 37.563,103.81C36.88,103.603 36.433,103.05 36.573,102.572C36.713,102.095 37.396,101.872 38.085,102.087C38.768,102.293 39.215,102.843 39.073,103.324ZM44.016,103.685C44.033,104.183 43.453,104.595 42.736,104.605C42.013,104.622 41.428,104.218 41.421,103.728C41.421,103.225 41.989,102.818 42.711,102.804C43.428,102.791 44.017,103.191 44.017,103.684L44.016,103.685ZM48.614,102.903C48.7,103.388 48.201,103.887 47.488,104.02C46.788,104.15 46.138,103.848 46.048,103.367C45.962,102.869 46.47,102.37 47.17,102.241C47.884,102.118 48.524,102.411 48.614,102.904L48.614,102.903Z" style="fill-rule:nonzero;"/>
            </g>
        </g>
        <g id="jquery" transform="matrix(0.360827,0.208324,-2.00299e-17,0.416648,126.907,131.612)">
            <path d="M9.625,32.181C-1.404,48.032 -0.031,68.657 8.394,85.501C8.594,85.905 8.804,86.302 9.011,86.699L9.405,87.458L9.651,87.895L10.09,88.681C10.352,89.142 10.62,89.601 10.894,90.06L11.353,90.816C11.657,91.307 11.968,91.792 12.286,92.276L12.684,92.89C13.123,93.545 13.572,94.199 14.036,94.841L14.075,94.891L14.303,95.199C14.704,95.752 15.117,96.298 15.535,96.838L15.999,97.428C16.372,97.897 16.751,98.363 17.137,98.827L17.572,99.347C18.09,99.957 18.619,100.564 19.158,101.159L19.191,101.192L19.252,101.26C19.779,101.835 20.318,102.397 20.864,102.959L21.381,103.48C21.804,103.906 22.234,104.325 22.668,104.742L23.195,105.242C23.775,105.789 24.361,106.325 24.959,106.849L24.987,106.871L25.294,107.133C25.821,107.589 26.357,108.042 26.897,108.486L27.561,109.015C28.002,109.369 28.448,109.717 28.897,110.059L29.611,110.602C30.107,110.967 30.606,111.326 31.11,111.677L31.656,112.064L31.806,112.171C32.284,112.5 32.773,112.817 33.262,113.134L33.892,113.554C34.642,114.028 35.402,114.497 36.171,114.95L36.801,115.305C37.366,115.631 37.935,115.951 38.511,116.264C38.823,116.432 39.143,116.591 39.457,116.752C39.864,116.965 40.268,117.181 40.682,117.388L40.965,117.525L41.466,117.767C42.107,118.073 42.753,118.374 43.406,118.664L43.816,118.848C44.564,119.175 45.318,119.489 46.079,119.789L46.63,120.006C47.334,120.277 48.048,120.545 48.765,120.797L49.033,120.89C49.82,121.165 50.614,121.42 51.414,121.669L51.989,121.841C52.803,122.086 53.608,122.379 54.447,122.534C107.786,132.261 123.28,90.481 123.28,90.481C110.267,107.434 87.169,111.906 65.284,106.927C64.455,106.74 63.651,106.481 62.842,106.242L62.233,106.057C61.443,105.815 60.66,105.56 59.881,105.292L59.558,105.175C58.86,104.93 58.171,104.671 57.484,104.406L56.902,104.177C56.15,103.88 55.402,103.57 54.663,103.246L54.216,103.048C53.581,102.76 52.953,102.47 52.327,102.169L51.781,101.907C51.29,101.668 50.804,101.414 50.32,101.164C49.996,100.993 49.666,100.832 49.345,100.654C48.753,100.337 48.173,100.008 47.594,99.672L47.003,99.342C46.234,98.89 45.475,98.421 44.723,97.945L44.108,97.535C43.563,97.184 43.02,96.826 42.485,96.456L41.963,96.089C41.447,95.724 40.936,95.355 40.429,94.98L39.75,94.466C39.285,94.111 38.823,93.753 38.366,93.384L37.749,92.889C37.167,92.41 36.593,91.93 36.025,91.436L35.836,91.277C35.222,90.738 34.62,90.185 34.024,89.63L33.513,89.139C33.072,88.719 32.638,88.296 32.211,87.862L31.701,87.353C31.158,86.797 30.625,86.234 30.103,85.663L30.024,85.579C29.472,84.975 28.932,84.358 28.403,83.735L27.979,83.231C27.585,82.756 27.194,82.275 26.812,81.789L26.385,81.257C25.926,80.661 25.477,80.068 25.038,79.463C12.888,62.889 8.522,40.031 18.233,21.259M43.862,18.825C35.885,30.303 36.319,45.669 42.541,57.808C43.584,59.843 44.757,61.818 46.069,63.697C47.264,65.41 48.589,67.448 50.175,68.824C50.75,69.457 51.351,70.075 51.965,70.682L52.437,71.147C53.033,71.725 53.638,72.293 54.265,72.845L54.339,72.909L54.357,72.927C55.05,73.535 55.765,74.118 56.492,74.694L56.977,75.072C57.706,75.631 58.449,76.179 59.21,76.703L59.275,76.752C59.611,76.984 59.953,77.2 60.294,77.424L60.777,77.743C61.321,78.092 61.872,78.432 62.432,78.758L62.667,78.894C63.15,79.172 63.639,79.446 64.13,79.712L64.651,79.983C64.99,80.16 65.329,80.341 65.674,80.513L65.829,80.583C66.532,80.929 67.241,81.263 67.965,81.578L68.437,81.772C69.016,82.018 69.601,82.258 70.187,82.482L70.937,82.757C71.47,82.955 72.005,83.135 72.544,83.316L73.271,83.549C74.038,83.787 74.796,84.088 75.595,84.221C116.778,91.044 126.286,59.335 126.286,59.335C117.716,71.678 101.118,77.568 83.407,72.97C82.62,72.763 81.845,72.539 81.074,72.296L80.373,72.069C79.825,71.892 79.281,71.704 78.742,71.507L78.006,71.233C77.414,71.005 76.83,70.771 76.25,70.525L75.777,70.325C75.05,70.009 74.334,69.675 73.629,69.326C73.266,69.149 72.909,68.962 72.551,68.778L71.929,68.458C71.471,68.21 71.015,67.952 70.566,67.688L70.24,67.503C69.682,67.178 69.133,66.842 68.589,66.495L68.091,66.163C67.732,65.931 67.374,65.694 67.022,65.456C66.263,64.932 65.524,64.384 64.796,63.828L64.295,63.433C56.543,57.313 50.397,48.947 47.476,39.462C44.414,29.626 45.074,18.584 50.379,9.622M72.657,8.847C67.955,15.767 67.493,24.361 70.756,32.003C74.197,40.116 81.247,46.479 89.476,49.498C89.815,49.623 90.155,49.735 90.498,49.852L90.949,49.995C91.434,50.147 91.915,50.324 92.416,50.419C115.156,54.813 121.324,38.75 122.965,36.385C117.563,44.164 108.483,46.031 97.342,43.327C96.462,43.114 95.495,42.796 94.647,42.495C93.559,42.107 92.487,41.665 91.446,41.166C89.468,40.215 87.582,39.062 85.834,37.742C75.865,30.177 69.672,15.748 76.177,3.997" style="fill:rgb(8,104,172);fill-rule:nonzero;"/>
        </g>
    </g>
</svg>
