<svg width="2560" height="184" viewBox="0 0 2560 184" fill="none" xmlns="http://www.w3.org/2000/svg">
<g clip-path="url(#clip0)">
<path d="M0 0L0 184C0 184 252.005 187.136 551.583 141.183C733.276 113.31 960.482 152.395 1103.34 148.446C1228.06 144.996 1226.36 132.009 1342.97 124.154C1459.59 116.3 1526.91 126.062 1690.08 91.4326C1809.02 66.1898 2001.32 7.69488 2280.35 25.9436C2559.38 44.1922 2822.41 29.0423 2822.41 0L0 0Z" fill="white"/>
<path d="M0 0L0 184C0 184 252.005 187.136 551.583 141.183C733.276 113.31 960.482 152.395 1103.34 148.446C1228.06 144.996 1226.36 132.009 1342.97 124.154C1459.59 116.3 1526.91 126.062 1690.08 91.4326C1809.02 66.1898 2001.32 7.69488 2280.35 25.9436C2559.38 44.1922 2822.41 29.0423 2822.41 0L0 0Z" fill="white"/>
<path d="M0 0L0 184C0 184 252.005 187.136 551.583 141.183C733.276 113.31 960.482 152.395 1103.34 148.446C1228.06 144.996 1226.36 132.009 1342.97 124.154C1459.59 116.3 1526.91 126.062 1690.08 91.4326C1809.02 66.1898 2001.32 7.69488 2280.35 25.9436C2559.38 44.1922 2822.41 29.0423 2822.41 0L0 0Z" fill="white"/>
<path d="M0 0L0 184C0 184 252.005 187.136 551.583 141.183C733.276 113.31 960.482 152.395 1103.34 148.446C1228.06 144.996 1226.36 132.009 1342.97 124.154C1459.59 116.3 1526.91 126.062 1690.08 91.4326C1809.02 66.1898 2001.32 7.69488 2280.35 25.9436C2559.38 44.1922 2822.41 29.0423 2822.41 0L0 0Z" fill="white"/>
</g>
<defs>
<clipPath id="clip0">
<rect width="2560" height="184" fill="white"/>
</clipPath>
</defs>
</svg>
